<svg width="28" height="16" viewBox="0 0 28 16" fill="none" xmlns="http://www.w3.org/2000/svg">
<path d="M0.792787 7.29286C0.402263 7.68338 0.402264 8.31655 0.792789 8.70707L7.15676 15.071C7.54729 15.4615 8.18045 15.4615 8.57097 15.071C8.9615 14.6805 8.9615 14.0473 8.57097 13.6568L2.91411 7.99996L8.57095 2.3431C8.96148 1.95257 8.96148 1.31941 8.57095 0.928883C8.18043 0.538359 7.54726 0.53836 7.15674 0.928885L0.792787 7.29286ZM28 6.99992L14.7499 6.99994L14.7499 8.99994L28 8.99992L28 6.99992ZM14.7499 6.99994L1.49989 6.99996L1.4999 8.99996L14.7499 8.99994L14.7499 6.99994Z" fill="black"/>
</svg>
